<svg width="117" height="112" viewBox="0 0 117 112" fill="none" xmlns="http://www.w3.org/2000/svg">
<mask id="path-1-outside-1_13_8933" maskUnits="userSpaceOnUse" x="-24.2631" y="-23.1057" width="165.331" height="157.913" fill="black">
<rect fill="white" x="-24.2631" y="-23.1057" width="165.331" height="157.913"/>
<path d="M111.298 61.8408C109.932 72.7265 104.92 82.8995 97.0107 90.845C89.1011 98.7904 78.7162 104.083 67.4024 105.935C56.0886 107.788 44.4511 106.1 34.2227 101.124C23.9943 96.1478 15.7222 88.1494 10.6381 78.3197C5.55395 68.49 3.92977 57.3548 6.0074 46.5721C8.08503 35.7894 13.7533 25.936 22.1683 18.4792C30.5832 11.0224 41.2947 6.36091 52.7077 5.18895C64.1207 4.01699 75.6247 6.39722 85.5069 11.9752L58.4024 55.7821L111.298 61.8408Z"/>
</mask>
<path d="M111.298 61.8408C109.932 72.7265 104.92 82.8995 97.0107 90.845C89.1011 98.7904 78.7162 104.083 67.4024 105.935C56.0886 107.788 44.4511 106.1 34.2227 101.124C23.9943 96.1478 15.7222 88.1494 10.6381 78.3197C5.55395 68.49 3.92977 57.3548 6.0074 46.5721C8.08503 35.7894 13.7533 25.936 22.1683 18.4792C30.5832 11.0224 41.2947 6.36091 52.7077 5.18895C64.1207 4.01699 75.6247 6.39722 85.5069 11.9752L58.4024 55.7821L111.298 61.8408Z" fill="#16D691"/>
<path d="M111.298 61.8408C109.932 72.7265 104.92 82.8995 97.0107 90.845C89.1011 98.7904 78.7162 104.083 67.4024 105.935C56.0886 107.788 44.4511 106.1 34.2227 101.124C23.9943 96.1478 15.7222 88.1494 10.6381 78.3197C5.55395 68.49 3.92977 57.3548 6.0074 46.5721C8.08503 35.7894 13.7533 25.936 22.1683 18.4792C30.5832 11.0224 41.2947 6.36091 52.7077 5.18895C64.1207 4.01699 75.6247 6.39722 85.5069 11.9752L58.4024 55.7821L111.298 61.8408Z" stroke="#7CC3FF" stroke-opacity="0.05" stroke-width="10" mask="url(#path-1-outside-1_13_8933)"/>
</svg>
