<svg width="36" height="33" viewBox="0 0 36 33" fill="none" xmlns="http://www.w3.org/2000/svg">
<path d="M35.2394 13.8591H23.7465M19.4366 6.65492C19.4366 7.42898 19.2694 8.19546 18.9445 8.9106C18.6196 9.62574 18.1434 10.2755 17.5431 10.8229C16.9428 11.3702 16.2301 11.8044 15.4458 12.1006C14.6615 12.3968 13.8208 12.5493 12.9718 12.5493C12.1229 12.5493 11.2822 12.3968 10.4979 12.1006C9.71352 11.8044 9.00085 11.3702 8.40053 10.8229C7.80022 10.2755 7.32403 9.62574 6.99914 8.9106C6.67426 8.19546 6.50704 7.42898 6.50704 6.65492C6.50704 5.09164 7.18815 3.59239 8.40053 2.48698C9.61292 1.38157 11.2573 0.760563 12.9718 0.760563C14.6864 0.760563 16.3307 1.38157 17.5431 2.48698C18.7555 3.59239 19.4366 5.09164 19.4366 6.65492ZM0.760563 29.1146V28.9225C0.760563 25.9696 2.0471 23.1377 4.33716 21.0497C6.62722 18.9617 9.7332 17.7887 12.9718 17.7887C16.2105 17.7887 19.3164 18.9617 21.6065 21.0497C23.8966 23.1377 25.1831 25.9696 25.1831 28.9225V29.1129C21.4967 31.1372 17.2733 32.2038 12.9699 32.1972C8.5049 32.1972 4.32721 31.0707 0.760563 29.1129V29.1146Z" stroke="#D84506" stroke-width="1.5" stroke-linecap="round" stroke-linejoin="round"/>
</svg>
