<svg width="41" height="41" viewBox="0 0 41 41" fill="none" xmlns="http://www.w3.org/2000/svg">
<path d="M18.8284 3.96652C18.6739 4.3918 18.5906 4.84342 18.5906 5.31123C18.5906 6.14965 19.3897 6.83011 20.3742 6.83011H31.0758C31.5489 6.83011 32.0026 6.67008 32.337 6.38524C32.6715 6.1004 32.8595 5.71406 32.8595 5.31123C32.8596 4.85539 32.7794 4.4021 32.6216 3.96652M18.8284 3.96652C19.1662 3.03636 19.8448 2.22272 20.7649 1.64474C21.6849 1.06677 22.7981 0.75483 23.9414 0.754601H27.5086C29.9153 0.754601 31.9486 2.10741 32.6216 3.96652M18.8284 3.96652C17.9343 4.0131 17.0448 4.06778 16.1554 4.12853C13.4657 4.3189 11.4562 6.26914 11.4562 8.5677V12.9056M32.6216 3.96652C33.5158 4.0131 34.4052 4.06778 35.2947 4.12853C37.9843 4.3189 39.9939 6.26914 39.9939 8.5677V29.6133C39.9939 30.8218 39.4301 31.9808 38.4266 32.8353C37.4232 33.6898 36.0622 34.1699 34.6431 34.1699H29.2922M11.4562 12.9056H3.43001C1.95318 12.9056 0.754601 13.9263 0.754601 15.1839V37.9671C0.754601 39.2247 1.95318 40.2454 3.43001 40.2454H26.6168C28.0937 40.2454 29.2922 39.2247 29.2922 37.9671V34.1699M11.4562 12.9056H26.6168C28.0937 12.9056 29.2922 13.9263 29.2922 15.1839V34.1699M9.67262 28.0944L13.2398 31.1321L20.3742 23.5378" stroke="#4A8CC4" stroke-width="1.5" stroke-linecap="round" stroke-linejoin="round"/>
</svg>
