<svg width="2" height="2" viewBox="0 0 2 2" fill="none" xmlns="http://www.w3.org/2000/svg">
<path d="M1.99834 1.05724C1.98702 1.25471 1.9174 1.44437 1.79828 1.60226C1.67915 1.76015 1.51589 1.87917 1.32912 1.94427C1.14236 2.00937 0.940479 2.01762 0.749024 1.96798C0.557569 1.91834 0.385131 1.81305 0.253522 1.66541C0.121912 1.51776 0.0370446 1.33441 0.00964406 1.13853C-0.0177565 0.942652 0.0135396 0.743048 0.0995841 0.56496C0.185628 0.386871 0.322554 0.238298 0.49304 0.13803C0.663525 0.0377615 0.859916 -0.00970168 1.05738 0.00164818C1.32213 0.0168661 1.56999 0.136626 1.74646 0.334585C1.92292 0.532544 2.01352 0.792488 1.99834 1.05724Z" fill="#FFFDFC"/>
</svg>
