<svg width="15" height="14" viewBox="0 0 15 14" fill="none" xmlns="http://www.w3.org/2000/svg">
<path d="M1.00167 13.9375C0.827785 13.9365 0.657092 13.8906 0.506229 13.8041C0.355366 13.7177 0.229473 13.5936 0.140814 13.444C0.0521546 13.2944 0.00375014 13.1244 0.000319071 12.9505C-0.003112 12.7767 0.0385514 12.6049 0.121239 12.4519L6.5561 0.528445C6.64275 0.367886 6.7714 0.23389 6.9283 0.140781C7.0852 0.0476709 7.26446 -0.00105341 7.4469 -0.000184873C7.62935 0.000683719 7.80813 0.0511147 7.96414 0.145714C8.12014 0.240313 8.24751 0.375527 8.33263 0.536903L14.6491 12.5237C14.7304 12.6774 14.7704 12.8496 14.7653 13.0235C14.7602 13.1973 14.7101 13.3669 14.6199 13.5156C14.5297 13.6643 14.4025 13.7871 14.2507 13.872C14.0989 13.9569 13.9277 14.0009 13.7538 13.9999L1.00167 13.9375Z" fill="#EC5865"/>
</svg>
