<svg width="18" height="15" viewBox="0 0 18 15" fill="none" xmlns="http://www.w3.org/2000/svg">
<path d="M3.17709 5.46942C3.49143 2.64032 5.88274 0.5 8.72925 0.5V0.5C11.5758 0.5 13.9671 2.64032 14.2814 5.46942L14.5332 7.73563C14.5364 7.76452 14.538 7.77897 14.5397 7.79326C14.6686 8.91695 15.0344 10.0005 15.6128 10.9725C15.6202 10.9849 15.6276 10.9973 15.6426 11.0222L16.2206 11.9856C16.7452 12.8599 17.0075 13.297 16.9508 13.6559C16.9132 13.8946 16.7903 14.1117 16.6049 14.2668C16.3263 14.5 15.8166 14.5 14.797 14.5H2.66148C1.64193 14.5 1.13216 14.5 0.853585 14.2668C0.668222 14.1117 0.545333 13.8946 0.507659 13.6559C0.451039 13.297 0.713316 12.8599 1.23787 11.9856L1.8159 11.0222C1.83086 10.9973 1.83834 10.9849 1.84569 10.9725C2.42413 10.0005 2.78989 8.91695 2.91883 7.79326C2.92047 7.77897 2.92208 7.76452 2.92529 7.73563L3.17709 5.46942Z" stroke="#FFC727"/>
</svg>
