<svg width="3" height="5" viewBox="0 0 3 5" fill="none" xmlns="http://www.w3.org/2000/svg">
<path d="M1.49323 4.73411C1.47137 4.81186 1.4243 4.88016 1.35943 4.92827C1.29455 4.97638 1.21554 5.00159 1.13479 4.99994C1.05403 4.99828 0.976111 4.96987 0.913257 4.91914C0.850404 4.86841 0.806178 4.79825 0.787513 4.71967C-0.0555541 1.05201 0.00230666 1.30976 0.000971731 1.27154C-0.00596922 1.10481 0.0213458 0.938425 0.0812315 0.782667C0.141117 0.626909 0.2323 0.485077 0.349149 0.365943C0.465999 0.246808 0.606037 0.152901 0.760606 0.0900105C0.915176 0.02712 1.08099 -0.00341822 1.24783 0.000292891C1.41466 0.004004 1.57896 0.0418807 1.73058 0.111582C1.8822 0.181284 2.01792 0.281331 2.12936 0.405544C2.24079 0.529756 2.32558 0.6755 2.37848 0.833767C2.43138 0.992034 2.45127 1.15947 2.43692 1.32572C2.43091 1.36339 2.50091 1.10606 1.49323 4.73411Z" fill="#FFFDFC"/>
</svg>
