<svg width="21" height="18" viewBox="0 0 21 18" fill="none" xmlns="http://www.w3.org/2000/svg">
<path d="M2.64725 10.0751L9.61669 16.6222C9.85676 16.8477 9.9768 16.9604 10.1183 16.9882C10.1821 17.0007 10.2476 17.0007 10.3114 16.9882C10.4529 16.9604 10.5729 16.8477 10.813 16.6222L17.7824 10.0751C19.7434 8.23305 19.9815 5.20173 18.3323 3.07607L18.0222 2.67638C16.0492 0.13348 12.089 0.559944 10.7027 3.46459C10.5069 3.87489 9.92283 3.87489 9.727 3.46459C8.34069 0.559944 4.38048 0.133484 2.40754 2.67639L2.09744 3.07607C0.448215 5.20174 0.686341 8.23304 2.64725 10.0751Z" stroke="#FFC727" stroke-width="2"/>
</svg>
