<svg width="768" height="1416" viewBox="0 0 768 1416" fill="none" xmlns="http://www.w3.org/2000/svg">
<path d="M108.119 0.224938C54.0495 -1.56545 27.8686 94.9864 8.65122 199.595C-9.45249 298.141 1.78904 1051.46 33.6716 1327.51C72.9324 1667.45 159.292 916.893 222 920.5C306.316 925.349 298.152 1003.82 382.5 1003.5C417.874 1003.36 544.182 879.077 581 931C652.973 1032.5 626.033 1353.3 675.12 1345.34C782.316 1327.95 781.593 410.985 748.001 199.595C732.422 101.564 714.048 2.56512 664.197 0.224938C613.329 -2.16296 627.346 197.301 576.478 199.595C524.567 201.935 536.758 2.02994 484.842 0.224938C432.076 -1.60964 442.788 204.785 390.074 199.595C339.66 194.631 354.262 7.71138 303.921 0.224938C249.984 -7.79628 258.523 201.385 204.454 199.595C151.256 197.833 161.316 1.98645 108.119 0.224938Z" fill="white"/>
</svg>
